<svg id="Layer_1" data-name="Layer 1" xmlns="http://www.w3.org/2000/svg" viewBox="0 0 2048 2048"><defs><style>.cls-1{fill:#fff;stroke:#231f20;stroke-miterlimit:10;stroke-width:10px;}.cls-2{fill:#231f20;}</style></defs><title>icon</title><rect class="cls-1" x="337.5" y="338.8333" width="1350" height="1350" rx="154.5573"/><path class="cls-2" d="M411.5356,969.229v37.4268H424.78a5.6789,5.6789,0,0,1,3.76.9824,3.5628,3.5628,0,0,1,0,5.17,5.5,5.5,0,0,1-3.76,1.0254H394.7021a5.3436,5.3436,0,0,1-3.6743-1.0254,3.563,3.563,0,0,1,0-5.17,5.5151,5.5151,0,0,1,3.6743-.9824h9.6558v-85.62h-9.6558a5.5067,5.5067,0,0,1-3.6743-.9824,3.6134,3.6134,0,0,1,0-5.2129,5.5151,5.5151,0,0,1,3.6743-.9824H438.11q13.4142,0,22.6015,8.502,9.1839,8.5041,9.1856,19.1836,0,7.69-5.6827,14.4834t-19.0122,11.3222a63.428,63.428,0,0,1,13.1592,11.9629q5.4675,6.6651,17.5171,27.3438h5.4688a5.5176,5.5176,0,0,1,3.6743.9824,3.563,3.563,0,0,1,0,5.17,5.346,5.346,0,0,1-3.6743,1.0254h-9.57q-13.33-23.84-20.6357-31.958a53.4308,53.4308,0,0,0-16.791-12.6465Zm0-7.1777h19.5679a41.3147,41.3147,0,0,0,17.0469-3.418q7.6464-3.4167,11.1084-8.0322a15.541,15.541,0,0,0,3.4609-9.3994q0-7.1778-7.2207-13.6719a25.3293,25.3293,0,0,0-17.56-6.4942H411.5356Z"/><path class="cls-2" d="M578.76,978.543H505.6152q1.8788,13.9292,11.6636,22.43,9.7837,8.5042,24.2251,8.5025a58.372,58.372,0,0,0,16.8335-2.6489,43.2785,43.2785,0,0,0,14.3555-7.0069,4.8634,4.8634,0,0,1,2.82-1.2817,3.2206,3.2206,0,0,1,2.3926,1.0679,3.5229,3.5229,0,0,1,1.0254,2.521,4.0086,4.0086,0,0,1-1.3672,2.82q-4.1016,4.2736-14.5689,7.9892a63.7571,63.7571,0,0,1-21.4907,3.7173q-18.4571,0-30.8042-12.0913a39.4444,39.4444,0,0,1-12.3476-29.2661q0-15.6372,11.5781-26.8311t28.6684-11.1938q17.6016,0,28.9673,11.4932Q578.9295,960.2574,578.76,978.543Zm-7.2632-7.2632A31.2767,31.2767,0,0,0,560.26,951.9683a35.3746,35.3746,0,0,0-43.28-.0855,31.4569,31.4569,0,0,0-11.2793,19.397Z"/><path class="cls-2" d="M668.6523,944.5342a5.197,5.197,0,0,1,1.0254-3.5889,3.3466,3.3466,0,0,1,2.5635-1.1108,3.4449,3.4449,0,0,1,2.6489,1.1108,5.5,5.5,0,0,1,1.0254,3.76V957.01a5.3434,5.3434,0,0,1-1.0254,3.6743,3.44,3.44,0,0,1-2.6489,1.1108,3.3812,3.3812,0,0,1-2.4355-.94,4.6445,4.6445,0,0,1-1.1534-3.0762,11.4523,11.4523,0,0,0-5.2978-8.46q-7.0079-4.7841-18.5425-4.7851-12.0483,0-18.7134,4.8706-5.0427,3.6753-5.0415,8.2031,0,5.127,5.9815,8.5449,4.1015,2.3936,15.5517,3.6743,14.9525,1.6247,20.7642,3.6744,8.2873,2.9919,12.3476,8.2885a18.4638,18.4638,0,0,1,4.0586,11.45q0,9.1443-8.8012,16.2779t-25.8057,7.1352q-17.0054,0-27.8564-8.63a12.6848,12.6848,0,0,1-.3418,3.76,3.162,3.162,0,0,1-1.2388,1.4527,3.5389,3.5389,0,0,1-2.0083.5981,3.3414,3.3414,0,0,1-2.5635-1.1108,5.3437,5.3437,0,0,1-1.0254-3.6744V994.2656a5.5067,5.5067,0,0,1,.9829-3.6743,3.3087,3.3087,0,0,1,2.606-1.1108,3.5492,3.5492,0,0,1,2.606,1.0678,3.8719,3.8719,0,0,1,1.0683,2.8628,10.7286,10.7286,0,0,0,1.9653,6.58q2.99,4.1016,9.5279,6.793a42.1342,42.1342,0,0,0,16.0215,2.6919q14.0127,0,20.85-5.2124,6.8349-5.2111,6.8359-11.023,0-6.6649-6.9214-10.6811-7.0079-4.0152-20.3794-5.3833-13.3748-1.3661-19.1836-3.5889a19.4878,19.4878,0,0,1-9.0576-6.665,15.9,15.9,0,0,1-3.2471-9.57q0-9.2286,9.0577-14.6548T644.47,937.271Q659.3384,937.271,668.6523,944.5342Z"/><path class="cls-2" d="M735.2173,939.8345h38.9648a5.3458,5.3458,0,0,1,3.6743,1.0254,3.4446,3.4446,0,0,1,1.1109,2.6489,3.3463,3.3463,0,0,1-1.1109,2.5635,5.3458,5.3458,0,0,1-3.6743,1.0254H735.2173v47.7661a13.0591,13.0591,0,0,0,4.999,10.4248q4.998,4.188,14.6543,4.187a63.2709,63.2709,0,0,0,15.7227-2.1792,53.19,53.19,0,0,0,13.1591-4.9131,5.6085,5.6085,0,0,1,2.82-1.1108,3.2206,3.2206,0,0,1,2.3925,1.0678,3.5232,3.5232,0,0,1,1.0254,2.521,3.3493,3.3493,0,0,1-1.1108,2.3926q-2.7356,2.82-13.2871,6.11a67.913,67.913,0,0,1-20.209,3.2895q-12.561,0-19.9951-5.896t-7.4341-15.8935V947.0977H714.71a5.3432,5.3432,0,0,1-3.6743-1.0254,3.4376,3.4376,0,0,1-1.1109-2.649,3.341,3.341,0,0,1,1.1109-2.5634,5.3432,5.3432,0,0,1,3.6743-1.0254h13.2446V918.6431a5.3458,5.3458,0,0,1,1.0254-3.6743,3.3463,3.3463,0,0,1,2.5635-1.1109,3.4448,3.4448,0,0,1,2.6489,1.1109,5.3458,5.3458,0,0,1,1.0254,3.6743Z"/><path class="cls-2" d="M846.3867,939.8345V957.95q14.0127-12.6453,20.9776-16.2783a28.1156,28.1156,0,0,1,12.86-3.6314,18.9581,18.9581,0,0,1,11.92,4.315q5.5122,4.3161,5.5117,6.5371a3.6531,3.6531,0,0,1-3.76,3.76,3.2069,3.2069,0,0,1-1.4527-.2989,12.0061,12.0061,0,0,1-2.2216-1.9228,21.7609,21.7609,0,0,0-5.2124-4.1016,9.7165,9.7165,0,0,0-4.3579-1.1108q-4.7007,0-11.3218,3.76-6.6233,3.7611-22.9434,18.3716v39.3067h31.7871a5.6791,5.6791,0,0,1,3.76.9824,3.563,3.563,0,0,1,0,5.17,5.5,5.5,0,0,1-3.76,1.0254h-56.311a5.5069,5.5069,0,0,1-3.6743-.9824,3.2106,3.2106,0,0,1-1.1109-2.521,3.1736,3.1736,0,0,1,1.0679-2.4351,5.49,5.49,0,0,1,3.7173-.9829H839.209V947.0977H825.9644a5.3437,5.3437,0,0,1-3.6744-1.0254,3.4379,3.4379,0,0,1-1.1108-2.649,3.4034,3.4034,0,0,1,1.0679-2.5634,5.3223,5.3223,0,0,1,3.7173-1.0254Z"/><path class="cls-2" d="M984.5581,1013.8335v-10.51q-14.6982,13.33-31.7871,13.33-10.51,0-15.979-5.7251A24.7287,24.7287,0,0,1,929.7,993.4111V947.0977h-9.6558a5.3436,5.3436,0,0,1-3.6743-1.0254,3.4379,3.4379,0,0,1-1.1108-2.649A3.3412,3.3412,0,0,1,916.37,940.86a5.3436,5.3436,0,0,1,3.6743-1.0254h16.8335v53.5766a15.7823,15.7823,0,0,0,4.4434,11.5357,14.92,14.92,0,0,0,11.1084,4.5288q17.5158,0,32.1289-16.0645V947.0977H971.3135a5.3432,5.3432,0,0,1-3.6743-1.0254,3.4376,3.4376,0,0,1-1.1109-2.649,3.341,3.341,0,0,1,1.1109-2.5634,5.3432,5.3432,0,0,1,3.6743-1.0254h20.4223v66.8213h6.0669a5.5179,5.5179,0,0,1,3.6744.9824,3.563,3.563,0,0,1,0,5.17,5.3463,5.3463,0,0,1-3.6744,1.0254Z"/><path class="cls-2" d="M1094.959,947.0977v-2.3926a5.5,5.5,0,0,1,1.0254-3.76,3.3444,3.3444,0,0,1,2.5625-1.1108,3.4454,3.4454,0,0,1,2.6494,1.1108,5.5,5.5,0,0,1,1.0254,3.76V960.94a5.9777,5.9777,0,0,1-1.0684,3.76,3.5621,3.5621,0,0,1-5.041.1284,5.0966,5.0966,0,0,1-1.1533-3.29q-.5127-6.066-7.99-11.5357-7.4781-5.4675-20.1231-5.4687-15.98,0-24.2676,9.9975a34.8643,34.8643,0,0,0-8.289,22.9q0,13.9293,9.1435,22.9859,9.142,9.0585,23.669,9.0576a50.795,50.795,0,0,0,17.0478-3.0762,42.7975,42.7975,0,0,0,15.68-9.9121,5.0032,5.0032,0,0,1,3.1611-1.709,3.3569,3.3569,0,0,1,3.418,3.418q0,3.6753-8.63,9.314a55.3085,55.3085,0,0,1-31.0185,9.143q-17.3467,0-28.4971-11.0659t-11.1514-28.07q0-17.3452,11.4082-28.7964,11.4067-11.4492,28.7539-11.45Q1083.7632,937.271,1094.959,947.0977Z"/><path class="cls-2" d="M1155.2852,939.8345H1194.25a5.3473,5.3473,0,0,1,3.6748,1.0254,3.4459,3.4459,0,0,1,1.11,2.6489,3.3476,3.3476,0,0,1-1.11,2.5635,5.3473,5.3473,0,0,1-3.6748,1.0254h-38.9648v47.7661a13.0572,13.0572,0,0,0,5,10.4248q4.998,4.188,14.6543,4.187a63.2789,63.2789,0,0,0,15.7226-2.1792,53.1818,53.1818,0,0,0,13.1582-4.9131,5.61,5.61,0,0,1,2.82-1.1108,3.2215,3.2215,0,0,1,2.3926,1.0678,3.5232,3.5232,0,0,1,1.0254,2.521,3.348,3.348,0,0,1-1.1113,2.3926q-2.735,2.82-13.2871,6.11a67.906,67.906,0,0,1-20.209,3.2895q-12.56,0-19.9942-5.896t-7.4345-15.8935V947.0977h-13.2452a5.343,5.343,0,0,1-3.6738-1.0254,3.4383,3.4383,0,0,1-1.1113-2.649,3.3417,3.3417,0,0,1,1.1113-2.5634,5.343,5.343,0,0,1,3.6738-1.0254h13.2452V918.6431a5.3458,5.3458,0,0,1,1.0254-3.6743,3.3459,3.3459,0,0,1,2.5634-1.1109,3.443,3.443,0,0,1,2.6485,1.1109,5.3458,5.3458,0,0,1,1.0254,3.6743Z"/><path class="cls-2" d="M1299.6094,1013.8335v-10.51q-14.6983,13.33-31.7871,13.33-10.51,0-15.9785-5.7251a24.7271,24.7271,0,0,1-7.0928-17.5171V947.0977h-9.6553a5.344,5.344,0,0,1-3.6748-1.0254,3.4375,3.4375,0,0,1-1.11-2.649,3.3409,3.3409,0,0,1,1.11-2.5634,5.344,5.344,0,0,1,3.6748-1.0254h16.833v53.5766a15.7823,15.7823,0,0,0,4.4434,11.5357,14.9207,14.9207,0,0,0,11.1084,4.5288q17.5166,0,32.1289-16.0645V947.0977h-13.2442a5.344,5.344,0,0,1-3.6748-1.0254,3.4375,3.4375,0,0,1-1.11-2.649,3.3408,3.3408,0,0,1,1.11-2.5634,5.344,5.344,0,0,1,3.6748-1.0254h20.4219v66.8213h6.0664a5.519,5.519,0,0,1,3.6748.9824,3.5639,3.5639,0,0,1,0,5.17,5.3473,5.3473,0,0,1-3.6748,1.0254Z"/><path class="cls-2" d="M1371.4727,939.8345V957.95q14.0127-12.6453,20.9765-16.2783a28.1167,28.1167,0,0,1,12.8613-3.6314,18.9606,18.9606,0,0,1,11.92,4.315q5.5107,4.3161,5.5117,6.5371a3.6532,3.6532,0,0,1-3.76,3.76,3.21,3.21,0,0,1-1.4531-.2989,12.0532,12.0532,0,0,1-2.2227-1.9228,21.7447,21.7447,0,0,0-5.2109-4.1016,9.7218,9.7218,0,0,0-4.3594-1.1108q-4.6992,0-11.32,3.76-6.624,3.7611-22.9433,18.3716v39.3067H1403.26a5.6835,5.6835,0,0,1,3.76.9824,3.5661,3.5661,0,0,1,0,5.17,5.5047,5.5047,0,0,1-3.76,1.0254h-56.3116a5.51,5.51,0,0,1-3.6748-.9824,3.2133,3.2133,0,0,1-1.11-2.521,3.1732,3.1732,0,0,1,1.0674-2.4351,5.493,5.493,0,0,1,3.7177-.9829h17.3467V947.0977h-13.2461a5.3444,5.3444,0,0,1-3.6738-1.0254,3.441,3.441,0,0,1-1.11-2.649,3.403,3.403,0,0,1,1.0674-2.5634,5.3242,5.3242,0,0,1,3.7168-1.0254Z"/><path class="cls-2" d="M1523.9141,978.543H1450.77q1.878,13.9292,11.6631,22.43,9.7837,8.5042,24.2256,8.5025a58.3714,58.3714,0,0,0,16.833-2.6489,43.2882,43.2882,0,0,0,14.3555-7.0069,4.8622,4.8622,0,0,1,2.8193-1.2817,3.22,3.22,0,0,1,2.3926,1.0679,3.5229,3.5229,0,0,1,1.0254,2.521,4.0066,4.0066,0,0,1-1.3672,2.82q-4.1016,4.2736-14.5684,7.9892a63.76,63.76,0,0,1-21.49,3.7173q-18.4571,0-30.8047-12.0913a39.4463,39.4463,0,0,1-12.3476-29.2661q0-15.6372,11.5781-26.8311t28.668-11.1938q17.6029,0,28.9677,11.4932Q1524.0825,960.2574,1523.9141,978.543ZM1516.65,971.28a31.2767,31.2767,0,0,0-11.2363-19.3115,35.3746,35.3746,0,0,0-43.28-.0855,31.4569,31.4569,0,0,0-11.2793,19.397Z"/><path class="cls-2" d="M1625.2568,906.5947v100.0611h9.57a5.68,5.68,0,0,1,3.76.9824,3.5639,3.5639,0,0,1,0,5.17,5.5014,5.5014,0,0,1-3.76,1.0254h-16.833v-14.27q-12.4774,17.091-31.7021,17.09a37.4432,37.4432,0,0,1-32.7695-19.91,40.348,40.348,0,0,1,0-39.5206,37.2027,37.2027,0,0,1,14.0986-14.74,36.6643,36.6643,0,0,1,18.7559-5.2124q18.7983,0,31.6171,17.09V913.8579h-9.57a5.4942,5.4942,0,0,1-3.76-1.0254,3.4381,3.4381,0,0,1-1.1114-2.6489,3.342,3.342,0,0,1,1.1114-2.5635,5.4942,5.4942,0,0,1,3.76-1.0254Zm-7.2627,70.41a31.6691,31.6691,0,0,0-9.2285-23.0713,30.4539,30.4539,0,0,0-44.0068,0,33.4,33.4,0,0,0,0,46.1,30.3592,30.3592,0,0,0,44.0068,0A31.7062,31.7062,0,0,0,1617.9941,977.0049Z"/><path class="cls-2" d="M837.6279,1223.833h-9.2285l-52.8931-89.4648v82.2871H788.751a5.6761,5.6761,0,0,1,3.76.9824,3.5628,3.5628,0,0,1,0,5.17,5.5,5.5,0,0,1-3.76,1.0254H762.3472a5.4954,5.4954,0,0,1-3.76-1.0254,3.563,3.563,0,0,1,0-5.17,5.6709,5.6709,0,0,1,3.76-.9824h5.9814v-85.62h-9.6557a5.5068,5.5068,0,0,1-3.6744-.9825,3.6134,3.6134,0,0,1,0-5.2129,5.518,5.518,0,0,1,3.6744-.9824h18.7988l52.9785,89.6358v-82.458H817.2056a5.5068,5.5068,0,0,1-3.6744-.9825,3.3054,3.3054,0,0,1-1.1108-2.6064,3.3732,3.3732,0,0,1,1.0679-2.6065,5.4956,5.4956,0,0,1,3.7173-.9824h26.4892a5.52,5.52,0,0,1,3.6743.9824,3.6131,3.6131,0,0,1,0,5.2129,5.509,5.509,0,0,1-3.6743.9825h-6.0669Z"/><path class="cls-2" d="M947.6011,1187.0049a37.9921,37.9921,0,0,1-11.749,28.0273,40.4369,40.4369,0,0,1-56.7813-.0429,39.4043,39.4043,0,0,1,0-56.0547,40.4368,40.4368,0,0,1,56.7813-.043A38.0935,38.0935,0,0,1,947.6011,1187.0049Zm-7.2632,0a31.0979,31.0979,0,0,0-9.6128-22.9863,33.2721,33.2721,0,0,0-46.57.0429,32.1352,32.1352,0,0,0,0,45.8438,33.1641,33.1641,0,0,0,46.57.042A31.1329,31.1329,0,0,0,940.3379,1187.0049Z"/><path class="cls-2" d="M997.76,1149.834h38.9648a5.3426,5.3426,0,0,1,3.6738,1.0254,3.4438,3.4438,0,0,1,1.1114,2.6494,3.345,3.345,0,0,1-1.1114,2.5635,5.3426,5.3426,0,0,1-3.6738,1.0254H997.76v47.7656a13.0583,13.0583,0,0,0,4.999,10.4248q4.998,4.188,14.6543,4.1875a63.2716,63.2716,0,0,0,15.7226-2.18,53.1673,53.1673,0,0,0,13.1592-4.9131,5.6094,5.6094,0,0,1,2.82-1.11,3.2228,3.2228,0,0,1,2.3926,1.0673,3.5213,3.5213,0,0,1,1.0254,2.5206,3.3454,3.3454,0,0,1-1.1113,2.3925q-2.7363,2.8214-13.2871,6.11a67.9008,67.9008,0,0,1-20.209,3.29q-12.561,0-19.9951-5.8965t-7.4341-15.8935v-47.7656H977.252a5.3437,5.3437,0,0,1-3.6744-1.0254,3.4387,3.4387,0,0,1-1.1108-2.6494,3.3414,3.3414,0,0,1,1.1108-2.5635,5.3437,5.3437,0,0,1,3.6744-1.0254h13.2446v-21.1914a5.3444,5.3444,0,0,1,1.0254-3.6738,3.345,3.345,0,0,1,2.5634-1.1114,3.4435,3.4435,0,0,1,2.649,1.1114,5.3444,5.3444,0,0,1,1.0254,3.6738Z"/><path class="cls-2" d="M1156.3535,1188.543H1083.209q1.8779,13.9292,11.664,22.43,9.7823,8.5033,24.2247,8.5029a58.3832,58.3832,0,0,0,16.8339-2.6494,43.2776,43.2776,0,0,0,14.3555-7.0069,4.8612,4.8612,0,0,1,2.8193-1.2812,3.2209,3.2209,0,0,1,2.3926,1.0674,3.521,3.521,0,0,1,1.0254,2.5205,4.0055,4.0055,0,0,1-1.3672,2.82q-4.1015,4.2744-14.5693,7.9892a63.7526,63.7526,0,0,1-21.49,3.7178q-18.4571,0-30.8047-12.0918a39.4441,39.4441,0,0,1-12.3477-29.2656q0-15.6372,11.5781-26.8311t28.669-11.1943q17.6016,0,28.9678,11.4932Q1156.523,1170.2569,1156.3535,1188.543Zm-7.2637-7.2637a31.2734,31.2734,0,0,0-11.2363-19.3115,35.3741,35.3741,0,0,0-43.2793-.085,31.4548,31.4548,0,0,0-11.2793,19.3965Z"/><path class="cls-2" d="M1246.2461,1154.5342a5.197,5.197,0,0,1,1.0254-3.5889,3.3453,3.3453,0,0,1,2.5635-1.1113,3.4455,3.4455,0,0,1,2.6494,1.1113,5.5,5.5,0,0,1,1.0254,3.76V1167.01a5.3411,5.3411,0,0,1-1.0254,3.6738,3.4421,3.4421,0,0,1-2.6494,1.1113,3.3787,3.3787,0,0,1-2.4356-.94,4.6445,4.6445,0,0,1-1.1533-3.0762,11.4514,11.4514,0,0,0-5.2979-8.459q-7.0077-4.7841-18.542-4.7851-12.05,0-18.7138,4.87-5.0435,3.6753-5.042,8.2031,0,5.127,5.9824,8.5449,4.1016,2.3936,15.5508,3.6748,14.953,1.6247,20.7646,3.6739,8.2867,2.9927,12.3477,8.289a18.4658,18.4658,0,0,1,4.0586,11.45q0,9.1436-8.8018,16.2774t-25.8047,7.1357q-17.0067,0-27.8574-8.6308a12.66,12.66,0,0,1-.3418,3.76,3.1644,3.1644,0,0,1-1.2383,1.4532,3.5454,3.5454,0,0,1-2.0078.5976,3.3438,3.3438,0,0,1-2.5644-1.1113,5.3412,5.3412,0,0,1-1.0254-3.6738v-14.7823a5.51,5.51,0,0,1,.9834-3.6748,3.3087,3.3087,0,0,1,2.6064-1.11,3.5492,3.5492,0,0,1,2.6055,1.0674,3.8735,3.8735,0,0,1,1.0684,2.8632,10.729,10.729,0,0,0,1.9648,6.5791q2.9912,4.1016,9.5283,6.793a42.134,42.134,0,0,0,16.0215,2.6924q14.0127,0,20.85-5.2129,6.8351-5.21,6.836-11.0225,0-6.6649-6.9209-10.6816-7.0078-4.0152-20.38-5.3828-13.3755-1.3668-19.1836-3.5889a19.49,19.49,0,0,1-9.0576-6.665,15.8977,15.8977,0,0,1-3.2471-9.57q0-9.2286,9.0576-14.6553,9.0557-5.4243,21.6192-5.4258Q1236.9327,1147.2705,1246.2461,1154.5342Z"/></svg>